<svg xmlns="http://www.w3.org/2000/svg" viewBox="0 0 452 490" role="img" aria-label="Technical line drawing of a Dungeon Mastron game cartridge labelled Tower of the Black Star">
<style>
  .cart-title { font: 600 12px ui-monospace, "JetBrains Mono", Menlo, Consolas, monospace; letter-spacing: .22em; fill: #17150F; fill-opacity: .72; }
  .cart-title--em { fill: #C4552E; fill-opacity: .9; }
  .note { font: 500 9px ui-monospace, "JetBrains Mono", Menlo, Consolas, monospace; letter-spacing: .14em; fill: #17150F; fill-opacity: .55; }
  .note.title { fill-opacity: .42; letter-spacing: .18em; }
  .lead { stroke: #17150F; stroke-opacity: .32; stroke-width: .7; fill: none; }
  .ext, .dim { stroke: #17150F; stroke-opacity: .28; stroke-width: .7; fill: none; }
  .arr { fill: #17150F; fill-opacity: .38; }
  .shine { stroke-dasharray: 4 96; opacity: 0; animation: cartShine 13s linear infinite; animation-delay: -6s; }
  @keyframes cartShine {
    0% { stroke-dashoffset: 100; opacity: 0; }
    4% { opacity: .8; }
    40% { opacity: .8; }
    44% { stroke-dashoffset: 0; opacity: 0; }
    100% { stroke-dashoffset: 0; opacity: 0; }
  }
  .mark { animation: markBreath 7s ease-in-out infinite; }
  @keyframes markBreath { 0%,100% { stroke-opacity: .55; } 50% { stroke-opacity: 1; } }
  @media (prefers-reduced-motion: reduce) {
    .shine, .mark { animation: none !important; }
    .shine { opacity: 0; }
  }
</style>
  <!-- centreline -->
  <path d="M200,34 V444" stroke="#17150F" stroke-opacity=".14" stroke-width=".7" stroke-dasharray="5 5" fill="none"/>
  <!-- cartridge body: near-square landscape slab, rounded corners -->
  <path d="M76,92 h248 a16,16 0 0 1 16,16 v208 a16,16 0 0 1 -16,16 h-248 a16,16 0 0 1 -16,-16 v-208 a16,16 0 0 1 16,-16 Z" stroke="#17150F" stroke-opacity=".80" stroke-width="1.5" fill="none"/>
  <rect x="65" y="97" width="270" height="230" rx="11" stroke="#17150F" stroke-opacity=".22" stroke-width=".8" fill="none"/>
  <path class="shine" d="M76,92 h248 a16,16 0 0 1 16,16 v208 a16,16 0 0 1 -16,16 h-248 a16,16 0 0 1 -16,-16 v-208 a16,16 0 0 1 16,-16 Z" pathLength="100" stroke="#C4552E" stroke-width="1.6" fill="none"/>
  <!-- grip grooves, both side edges near the top corners -->
  <path d="M64,116 h22 M64,128 h22 M64,140 h22 M64,152 h22" stroke="#17150F" stroke-opacity=".45" stroke-width="1.2" fill="none" stroke-linecap="round"/>
  <path d="M336,116 h-22 M336,128 h-22 M336,140 h-22 M336,152 h-22" stroke="#17150F" stroke-opacity=".45" stroke-width="1.2" fill="none" stroke-linecap="round"/>
  <!-- recessed label panel, upper two-thirds -->
  <rect x="100" y="114" width="200" height="134" rx="7" stroke="#17150F" stroke-opacity=".60" stroke-width="1.1" fill="none"/>
  <rect x="104" y="118" width="192" height="126" rx="5" stroke="#17150F" stroke-opacity=".20" stroke-width=".8" fill="none"/>
  <path class="mark" d="M200,144 L211,158 L200,172 L189,158 Z" stroke="#C4552E" stroke-width="1.2" fill="none"/>
  <path d="M112,134 v-9 h9 M279,125 h9 v9 M112,228 v9 h9 M279,237 h9 v-9" stroke="#17150F" stroke-opacity=".30" stroke-width="1" fill="none"/>
  <path d="M156,188 h88" stroke="#17150F" stroke-opacity=".22" stroke-width="1" fill="none"/>
  <text x="200" y="212" text-anchor="middle" class="cart-title">TOWER OF THE</text>
  <text x="200" y="230" text-anchor="middle" class="cart-title cart-title--em">BLACK STAR</text>
  <!-- edge connector, hidden under the flat base -->
  <path d="M120,332 v18 h160 v-18" stroke="#17150F" stroke-opacity=".35" stroke-width="1" stroke-dasharray="4 3" fill="none"/>
  <path d="M128,337 v10 M141.1,337 v10 M154.2,337 v10 M167.3,337 v10 M180.4,337 v10 M193.5,337 v10 M206.5,337 v10 M219.6,337 v10 M232.7,337 v10 M245.8,337 v10 M258.9,337 v10 M272,337 v10" stroke="#17150F" stroke-opacity=".22" stroke-width="1" fill="none"/>
  <!-- annotations -->
  <path d="M34,82 L52,98 L62,114" class="lead"/>
  <text x="24" y="72" class="note">GRIP GROOVES ×4</text>
  <path d="M348,170 L320,176 L302,180" class="lead"/>
  <text x="344" y="166" class="note">LABEL · APPLIED</text>
  <path d="M26,420 L86,392 L118,354" class="lead"/>
  <text x="24" y="432" class="note">EDGE CONNECTOR · HIDDEN</text>
  <path d="M60,88 V56 M340,88 V56" class="ext"/>
  <path d="M60,62 H340" class="dim"/>
  <path d="M60,62 l6,-2.4 v4.8 Z M340,62 l-6,-2.4 v4.8 Z" class="arr"/>
  <text x="200" y="56" text-anchor="middle" class="note">ONE STORY PER CART</text>
  <text x="24" y="458" class="note title">DM·K1 — GAME CARTRIDGE · “TOWER OF THE BLACK STAR”</text>
</svg>